<svg width="117" height="101" viewBox="0 0 117 101" fill="none" xmlns="http://www.w3.org/2000/svg">
<path d="M50.1247 33.1195L110.345 32.7674L115.655 23.4601L101.977 0.0842661L31.0182 0.499101L32.9368 3.77137L50.1247 33.1244L50.1247 33.1195ZM110.605 23.4847L107.797 28.4043L52.6267 28.7269L38.6314 4.82275L99.4799 4.46702L110.605 23.4847Z" fill="white"/>
<path d="M0.776522 25.2212L22.476 62.2928L35.9757 85.3752L54.6119 52.6667L24.1076 0.534513L13.5506 0.596231L0.136981 24.1304L0.776522 25.2212ZM16.1038 4.95438L21.6105 4.92218L49.5616 52.6962L35.9245 76.6243L26.2521 60.0817L5.19217 24.1008L16.1038 4.95438Z" fill="white"/>
<path d="M39.4808 91.3572L40.1203 92.448L44.8053 100.46L71.8971 100.302L93.7737 61.8808L106.935 38.7849L69.2957 39.0049L39.4857 91.3572L39.4808 91.3572ZM99.3775 43.2071L89.9719 59.714L69.3439 95.9385L47.3073 96.0674L44.536 91.3277L71.8489 43.368L99.3824 43.207L99.3775 43.2071Z" fill="white"/>
</svg>
